<svg width="20" height="20" viewBox="0 0 20 20" fill="none" xmlns="http://www.w3.org/2000/svg">
<path d="M9.99993 5.441V8.771M18.5899 14.17C19.3199 15.39 18.7399 16.97 17.3899 17.42C12.6086 19.01 7.44121 19.01 2.65993 17.42C1.21993 16.94 0.669932 15.48 1.45993 14.17L2.72993 12.05C3.07993 11.47 3.35993 10.44 3.35993 9.77V7.67C3.35862 6.79456 3.52991 5.92744 3.86402 5.11826C4.19813 4.30907 4.68849 3.5737 5.30706 2.9542C5.92563 2.33471 6.66027 1.84324 7.46895 1.50792C8.27763 1.1726 9.14449 0.999999 10.0199 1C13.6799 1 16.6799 4 16.6799 7.66V9.76C16.6799 9.94 16.6999 10.14 16.7299 10.35" stroke="white" stroke-width="1.5" stroke-miterlimit="10" stroke-linecap="round"/>
</svg>
